<svg width="112" height="42" viewBox="0 0 112 42" fill="none" xmlns="http://www.w3.org/2000/svg">
<path d="M13.92 29.8H0.4V24.32L12.84 7H19.36V25.16H22.76V29.8H19.36V35H13.92V29.8ZM14.16 25.32V13.08H14L5.72 24.76V25.32H14.16ZM24.9641 30.68V26.12H30.4041V29.04L31.7241 30.36H38.8441L40.1641 29.04V22.72L38.8441 21.4H25.3641V7H45.0441V11.64H30.7241V16.76H41.2441L45.6041 21.12V30.68L41.2841 35H29.2841L24.9641 30.68ZM49.6219 30.36V11.64L54.2619 7H66.6619L71.3019 11.64V30.36L66.6619 35H54.2619L49.6219 30.36ZM64.1019 30.36L65.8619 28.6V13.4L64.1019 11.64H56.8219L55.0619 13.4V28.6L56.8219 30.36H64.1019Z" fill="white"/>
<path fill-rule="evenodd" clip-rule="evenodd" d="M91.2314 33.208L91.9781 8.04533L94.4421 7L94.7408 31.192L91.2314 33.208Z" fill="white" stroke="white" stroke-width="2"/>
<path fill-rule="evenodd" clip-rule="evenodd" d="M76 34.7012L79.4347 34.8505C79.5009 18.0657 88.5123 12.5313 92.9493 12.3759C104.938 12.7586 106.313 28.0877 106.763 34.8505L110.197 34.9999C109.939 18.7976 101.059 9.90897 93.7706 10.0613C81.3432 10.4993 76.6102 23.1838 76 34.7012Z" fill="white" stroke="white" stroke-width="2"/>
</svg>
