<svg width="55" height="52" viewBox="0 0 55 52" fill="none" xmlns="http://www.w3.org/2000/svg">
<path d="M33 10.9474V5.47368H22V10.9474H33ZM5.5 19.1579V43.7895C5.5 45.2947 6.7375 46.5263 8.25 46.5263H46.75C48.2625 46.5263 49.5 45.2947 49.5 43.7895V19.1579C49.5 17.6526 48.2625 16.4211 46.75 16.4211H8.25C6.7375 16.4211 5.5 17.6526 5.5 19.1579ZM49.5 10.9474C52.5525 10.9474 55 13.3832 55 16.4211V46.5263C55 49.5642 52.5525 52 49.5 52H5.5C2.4475 52 0 49.5642 0 46.5263L0.0275 16.4211C0.0275 13.3832 2.4475 10.9474 5.5 10.9474H16.5V5.47368C16.5 2.43579 18.9475 0 22 0H33C36.0525 0 38.5 2.43579 38.5 5.47368V10.9474H49.5Z" fill="white"/>
</svg>
