<svg width="51" height="50" viewBox="0 0 51 50" fill="none" xmlns="http://www.w3.org/2000/svg">
<path d="M49.0296 0H2.96392C1.86712 0 0.927002 0.9375 0.927002 2.03125V47.8125C0.927002 49.0625 1.86712 50 2.96392 50H27.5636V31.25H21.2962V23.4375H27.5636V17.1875C27.5636 10.7813 31.6375 7.5 37.4348 7.5C40.2552 7.5 42.6055 7.8125 43.2322 7.8125V14.5313H39.1584C36.0247 14.5313 35.2412 16.0937 35.2412 18.2812V23.4375H43.0755L41.5087 31.25H35.2412L35.3979 50H48.8729C49.9697 50 50.9099 49.0625 50.9099 47.9688V2.03125C51.0665 0.9375 50.1264 0 49.0296 0Z" fill="white"/>
</svg>
