<svg width="64" height="52" viewBox="0 0 64 52" fill="none" xmlns="http://www.w3.org/2000/svg">
<path d="M10.8629 52C10.0078 52 9.29062 51.7188 8.71121 51.1563C8.13382 50.5958 7.84513 49.9005 7.84513 49.0704V24.5352L4.8274 26.8056C4.12326 27.3427 3.36883 27.5497 2.5641 27.4267C1.75938 27.3056 1.10554 26.9033 0.602581 26.2197C0.0996268 25.5361 -0.0884782 24.8038 0.0382663 24.0225C0.162999 23.2413 0.552286 22.6066 1.20613 22.1183L30.1763 0.659155C30.4278 0.463849 30.7044 0.304676 31.0062 0.181634C31.308 0.0605447 31.6349 0 31.9869 0C32.339 0 32.6659 0.0605447 32.9677 0.181634C33.2695 0.304676 33.5461 0.463849 33.7976 0.659155L62.8432 22.1183C63.497 22.6066 63.8743 23.2413 63.9749 24.0225C64.0754 24.8038 63.8743 25.5361 63.3713 26.2197C62.8683 26.8545 62.2145 27.2207 61.4098 27.3183C60.6051 27.416 59.8758 27.2207 59.2219 26.7324L56.1288 24.5352V49.0704C56.1288 49.9005 55.8391 50.5958 55.2597 51.1563C54.6823 51.7188 53.9661 52 53.111 52H10.8629ZM13.8806 46.1408H50.0933V20.0676L31.9869 6.66479L13.8806 20.0676V46.1408ZM19.916 34.4225C20.7711 34.4225 21.4883 34.1413 22.0677 33.5788C22.6451 33.0183 22.9338 32.323 22.9338 31.493C22.9338 30.6629 22.6451 29.9666 22.0677 29.4042C21.4883 28.8436 20.7711 28.5634 19.916 28.5634C19.061 28.5634 18.3438 28.8436 17.7644 29.4042C17.187 29.9666 16.8983 30.6629 16.8983 31.493C16.8983 32.323 17.187 33.0183 17.7644 33.5788C18.3438 34.1413 19.061 34.4225 19.916 34.4225ZM31.9869 34.4225C32.842 34.4225 33.5592 34.1413 34.1386 33.5788C34.716 33.0183 35.0047 32.323 35.0047 31.493C35.0047 30.6629 34.716 29.9666 34.1386 29.4042C33.5592 28.8436 32.842 28.5634 31.9869 28.5634C31.1319 28.5634 30.4157 28.8436 29.8383 29.4042C29.2589 29.9666 28.9692 30.6629 28.9692 31.493C28.9692 32.323 29.2589 33.0183 29.8383 33.5788C30.4157 34.1413 31.1319 34.4225 31.9869 34.4225ZM44.0579 34.4225C44.9129 34.4225 45.6291 34.1413 46.2065 33.5788C46.7859 33.0183 47.0756 32.323 47.0756 31.493C47.0756 30.6629 46.7859 29.9666 46.2065 29.4042C45.6291 28.8436 44.9129 28.5634 44.0579 28.5634C43.2028 28.5634 42.4866 28.8436 41.9092 29.4042C41.3298 29.9666 41.0401 30.6629 41.0401 31.493C41.0401 32.323 41.3298 33.0183 41.9092 33.5788C42.4866 34.1413 43.2028 34.4225 44.0579 34.4225Z" fill="white"/>
</svg>
