<svg width="51" height="50" viewBox="0 0 51 50" fill="none" xmlns="http://www.w3.org/2000/svg">
<path d="M43.5239 42.6048H36.1207V30.9993C36.1207 28.2371 36.0728 24.6691 32.2657 24.6691C28.4107 24.6691 27.8161 27.6808 27.8161 30.7979V42.6048H20.413V18.7417H27.5189V22.0027H27.6148C29.0628 19.5186 31.7575 18.0415 34.6343 18.147C42.143 18.147 43.5239 23.0865 43.5239 29.5127V42.6048ZM12.0509 15.4807C9.67269 15.4807 7.75477 13.5528 7.75477 11.1838C7.75477 8.80516 9.68228 6.88691 12.0509 6.88691C14.4291 6.88691 16.347 8.81475 16.347 11.1838C16.347 13.5528 14.4195 15.4807 12.0509 15.4807ZM15.7525 42.6048H8.33974V18.7417H15.7525V42.6048ZM47.2158 0.000379435H4.61898C2.60518 -0.0188031 0.955771 1.59253 0.927002 3.60669V3.61628V46.3933C0.946181 48.4075 2.60518 50.0188 4.61898 49.9996H47.2158C49.2392 50.0284 50.8982 48.4075 50.927 46.3933V3.60669C50.8886 1.58294 49.2296 -0.0283943 47.2158 0.000379435Z" fill="white"/>
</svg>
