<svg width="51" height="50" viewBox="0 0 51 50" fill="none" xmlns="http://www.w3.org/2000/svg">
<path d="M44.9895 0H6.8645C3.58325 0 0.927002 2.65625 0.927002 5.9375V44.0625C0.927002 47.3438 3.58325 50 6.8645 50H44.9895C48.2708 50 50.927 47.3438 50.927 44.0625V5.9375C50.927 2.65625 48.2708 0 44.9895 0ZM38.427 6.25H43.1145C44.052 6.25 44.677 6.875 44.677 7.8125V12.5C44.677 13.4375 44.052 14.0625 43.1145 14.0625H38.427C37.4895 14.0625 36.8645 13.4375 36.8645 12.5V7.8125C36.8645 6.875 37.4895 6.25 38.427 6.25ZM25.927 15.4687C31.2395 15.4687 35.6145 19.6875 35.6145 25C35.6145 30.3125 31.2395 34.5313 25.927 34.5313C20.6145 34.5313 16.2395 30.3125 16.2395 25C16.3958 19.6875 20.6145 15.4687 25.927 15.4687ZM44.677 45.3125H7.177C6.2395 45.3125 5.6145 44.6875 5.6145 43.75V20.3125H11.8645C11.0833 21.5625 10.7708 23.5938 10.7708 25C10.7708 33.4375 17.6458 40.1563 25.927 40.1563C34.3645 40.1563 41.0833 33.2813 41.0833 25C41.0833 23.5938 40.927 21.4062 39.8333 20.3125H46.0833V43.75C46.2395 44.6875 45.6145 45.3125 44.677 45.3125Z" fill="white"/>
</svg>
