<svg width="40" height="40" viewBox="0 0 40 40" fill="none" xmlns="http://www.w3.org/2000/svg">
<path d="M2.50727 0.00108494C2.01083 0.00121532 1.52572 0.149394 1.11394 0.426676C0.702159 0.703958 0.382429 1.09774 0.195625 1.55769C0.00882093 2.01764 -0.0365699 2.52284 0.0652556 3.00872C0.167081 3.4946 0.411496 3.93907 0.767253 4.28532L16.4712 19.9893L0.767253 35.6933C0.527754 35.9232 0.336542 36.1986 0.204819 36.5034C0.073095 36.8082 0.00350697 37.1362 0.00012917 37.4682C-0.00324863 37.8002 0.0596522 38.1295 0.185148 38.4369C0.310643 38.7443 0.496211 39.0235 0.730983 39.2583C0.965755 39.4931 1.24501 39.6786 1.5524 39.8041C1.85978 39.9296 2.18912 39.9925 2.52112 39.9892C2.85312 39.9858 3.18111 39.9162 3.48588 39.7845C3.79065 39.6527 4.06607 39.4615 4.29602 39.222L20 23.5181L35.704 39.222C35.9339 39.4615 36.2093 39.6527 36.5141 39.7845C36.8189 39.9162 37.1469 39.9858 37.4789 39.9892C37.8109 39.9925 38.1402 39.9296 38.4476 39.8041C38.755 39.6787 39.0342 39.4931 39.269 39.2583C39.5038 39.0235 39.6894 38.7443 39.8149 38.4369C39.9403 38.1295 40.0033 37.8002 39.9999 37.4682C39.9965 37.1362 39.9269 36.8082 39.7952 36.5034C39.6634 36.1986 39.4722 35.9232 39.2327 35.6933L23.5288 19.9893L39.2327 4.28532C39.5933 3.93479 39.8396 3.48351 39.9394 2.9906C40.0391 2.4977 39.9876 1.98616 39.7916 1.52304C39.5956 1.05991 39.2642 0.666801 38.841 0.395221C38.4177 0.12364 37.9223 -0.0137391 37.4196 0.00108494C36.7713 0.0204028 36.156 0.29136 35.704 0.756552L20 16.4605L4.29602 0.756552C4.06346 0.517499 3.78536 0.327481 3.47813 0.197724C3.1709 0.0679676 2.84077 0.00110438 2.50727 0.00108494Z" fill="#D2D2D2"/>
</svg>
