<svg width="51" height="35" viewBox="0 0 51 35" fill="none" xmlns="http://www.w3.org/2000/svg">
<path d="M50.4583 7.5885C50.4583 7.5885 49.9895 4.18142 48.427 2.63274C46.552 0.619469 44.3645 0.619469 43.427 0.464602C36.3958 2.98023e-07 25.927 0 25.927 0C25.927 0 15.4583 2.98023e-07 8.427 0.464602C7.4895 0.619469 5.302 0.619469 3.427 2.63274C1.8645 4.18142 1.39575 7.5885 1.39575 7.5885C1.39575 7.5885 0.927002 11.615 0.927002 15.6416V19.3584C0.927002 23.385 1.39575 27.4115 1.39575 27.4115C1.39575 27.4115 1.8645 30.8186 3.427 32.3673C5.302 34.3805 7.802 34.2257 8.89575 34.5354C12.9583 34.8451 25.927 35 25.927 35C25.927 35 36.3958 35 43.427 34.5354C44.3645 34.3805 46.552 34.3805 48.427 32.3673C49.9895 30.8186 50.4583 27.4115 50.4583 27.4115C50.4583 27.4115 50.927 23.385 50.927 19.3584V15.6416C50.927 11.615 50.4583 7.5885 50.4583 7.5885ZM20.7708 24.0044V10.0664L34.2083 17.0354L20.7708 24.0044Z" fill="white"/>
</svg>
